# MAGNET WebGL Exporter v1.1
# Vertices: 543
# Faces: 1451

o hull
v 0.000000 0.000000 -1.400000
v 0.000000 0.000000 -1.353333
v 0.000000 0.000000 -1.306667
v 0.000000 0.000000 -1.260000
v 0.000000 0.000000 -1.213333
v 0.000000 0.000000 -1.166667
v 0.000000 0.000000 -1.120000
v 0.000000 0.000000 -1.050000
v 0.000000 0.000000 -0.980000
v 0.000000 0.000000 -0.910000
v 0.000000 0.000000 -0.840000
v 0.000000 0.000000 -0.770000
v 0.000000 0.000000 -0.700000
v 0.000000 0.000000 -0.350000
v 0.000000 0.000000 -0.000000
v 0.000000 0.000000 0.350000
v 0.000000 0.000000 0.700000
v 0.000000 0.000000 1.050000
v 0.000000 0.000000 1.400000
v 0.950000 0.000000 -1.400000
v 0.950000 0.000000 -1.353333
v 0.950000 0.000000 -1.306667
v 0.950000 0.000000 -1.260000
v 0.950000 0.000000 -1.213333
v 0.950000 0.000000 -1.166667
v 0.950000 0.000000 -1.120000
v 0.950000 0.000000 -1.050000
v 0.950000 0.000000 -0.980000
v 0.950000 0.000000 -0.910000
v 0.950000 0.000000 -0.840000
v 0.950000 0.000000 -0.770000
v 0.950000 0.000000 -0.700000
v 0.950000 0.000000 -0.350000
v 0.950000 0.000000 -0.000000
v 0.950000 0.000000 0.350000
v 0.950000 0.000000 0.700000
v 0.950000 0.000000 1.050000
v 0.950000 0.000000 1.400000
v 1.900000 0.000000 -1.400000
v 1.900000 0.000000 -1.353333
v 1.900000 0.000000 -1.306667
v 1.900000 0.000000 -1.260000
v 1.900000 0.000000 -1.213333
v 1.900000 0.000000 -1.166667
v 1.900000 0.000000 -1.120000
v 1.900000 0.000000 -1.050000
v 1.900000 0.000000 -0.980000
v 1.900000 0.000000 -0.910000
v 1.900000 0.000000 -0.840000
v 1.900000 0.000000 -0.770000
v 1.900000 0.000000 -0.700000
v 1.900000 0.000000 -0.350000
v 1.900000 0.000000 -0.000000
v 1.900000 0.000000 0.350000
v 1.900000 0.000000 0.700000
v 1.900000 0.000000 1.050000
v 1.900000 0.000000 1.400000
v 2.850000 0.000000 -1.400000
v 2.850000 0.000000 -1.353333
v 2.850000 0.000000 -1.306667
v 2.850000 0.000000 -1.260000
v 2.850000 0.000000 -1.213333
v 2.850000 0.000000 -1.166667
v 2.850000 0.000000 -1.140000
v 2.850000 0.000000 -1.140000
v 2.850000 0.000000 -1.120000
v 2.850000 0.000000 -1.120000
v 2.850000 0.000000 -1.100000
v 2.850000 0.000000 -1.100000
v 2.850000 0.000000 -1.120000
v 2.850000 0.000000 -1.050000
v 2.850000 0.000000 -0.980000
v 2.850000 0.000000 -0.930000
v 2.850000 0.000000 -0.930000
v 2.850000 0.000000 -0.910000
v 2.850000 0.000000 -0.910000
v 2.850000 0.000000 -0.890000
v 2.850000 0.000000 -0.910000
v 2.850000 0.000000 -0.840000
v 2.850000 0.000000 -0.770000
v 2.850000 0.000000 -0.700000
v 2.850000 0.000000 -0.700000
v 2.850000 0.000000 -0.700000
v 2.850000 0.000000 -0.350000
v 2.850000 0.000000 -0.000000
v 2.850000 0.000000 0.350000
v 2.850000 0.000000 0.700000
v 2.850000 0.000000 1.050000
v 2.850000 0.000000 1.400000
v 3.800000 0.000000 -1.400000
v 3.800000 0.000000 -1.353333
v 3.800000 0.000000 -1.306667
v 3.800000 0.000000 -1.260000
v 3.800000 0.000000 -1.213333
v 3.800000 0.000000 -1.166667
v 3.800000 0.000000 -1.140000
v 3.800000 0.000000 -1.140000
v 3.800000 0.035665 -1.108412
v 3.800000 0.035665 -1.108412
v 3.800000 -0.035665 -1.108412
v 3.800000 -0.035665 -1.108412
v 3.800000 0.000000 -1.100000
v 3.800000 0.000000 -1.100000
v 3.800000 0.000000 -1.120000
v 3.800000 0.000000 -1.050000
v 3.800000 0.000000 -0.980000
v 3.800000 0.000000 -0.930000
v 3.800000 0.000000 -0.930000
v 3.800000 0.030185 -0.901912
v 3.800000 0.030185 -0.901912
v 3.800000 -0.030185 -0.901912
v 3.800000 -0.030185 -0.901912
v 3.800000 0.000000 -0.890000
v 3.800000 0.000000 -0.910000
v 3.800000 0.000000 -0.840000
v 3.800000 0.000000 -0.770000
v 3.800000 0.000000 -0.700000
v 3.800000 0.000000 -0.350000
v 3.800000 0.000000 -0.000000
v 3.800000 0.000000 0.350000
v 3.800000 0.000000 0.700000
v 3.800000 0.000000 1.050000
v 3.800000 0.000000 1.400000
v 4.750000 0.000000 -1.400000
v 4.750000 0.000000 -1.353333
v 4.750000 0.000000 -1.306667
v 4.750000 0.000000 -1.260000
v 4.750000 0.000000 -1.213333
v 4.750000 0.000000 -1.166667
v 4.750000 0.000000 -1.140000
v 4.750000 0.000000 -1.140000
v 4.750000 0.057063 -1.101459
v 4.750000 0.057063 -1.101459
v 4.750000 -0.057063 -1.101459
v 4.750000 -0.057063 -1.101459
v 4.750000 0.000000 -1.100000
v 4.750000 0.000000 -1.100000
v 4.750000 0.000000 -1.120000
v 4.750000 0.000000 -1.050000
v 4.750000 0.000000 -0.980000
v 4.750000 0.000000 -0.930000
v 4.750000 0.000000 -0.930000
v 4.750000 0.048296 -0.897059
v 4.750000 0.048296 -0.897059
v 4.750000 -0.048296 -0.897059
v 4.750000 -0.048296 -0.897059
v 4.750000 0.000000 -0.890000
v 4.750000 0.000000 -0.910000
v 4.750000 0.000000 -0.840000
v 4.750000 0.000000 -0.770000
v 4.750000 0.000000 -0.700000
v 4.750000 0.000000 -0.350000
v 4.750000 0.000000 -0.000000
v 4.750000 0.000000 0.350000
v 4.750000 0.000000 0.700000
v 4.750000 0.000000 1.050000
v 4.750000 0.000000 1.400000
v 5.700000 0.000000 -1.400000
v 5.700000 0.000000 -1.353333
v 5.700000 0.000000 -1.306667
v 5.700000 0.000000 -1.260000
v 5.700000 0.000000 -1.213333
v 5.700000 0.000000 -1.166667
v 5.700000 0.000000 -1.140000
v 5.700000 0.000000 -1.140000
v 5.700000 0.057063 -1.101459
v 5.700000 0.057063 -1.101459
v 5.700000 -0.057063 -1.101459
v 5.700000 -0.057063 -1.101459
v 5.700000 0.000000 -1.100000
v 5.700000 0.000000 -1.100000
v 5.700000 0.000000 -1.120000
v 5.700000 0.000000 -1.050000
v 5.700000 0.000000 -0.980000
v 5.700000 0.000000 -0.930000
v 5.700000 0.000000 -0.930000
v 5.700000 0.048296 -0.897059
v 5.700000 0.048296 -0.897059
v 5.700000 -0.048296 -0.897059
v 5.700000 -0.048296 -0.897059
v 5.700000 0.000000 -0.890000
v 5.700000 0.000000 -0.910000
v 5.700000 0.000000 -0.840000
v 5.700000 0.000000 -0.770000
v 5.700000 0.000000 -0.700000
v 5.700000 0.000000 -0.350000
v 5.700000 0.000000 -0.000000
v 5.700000 0.000000 0.350000
v 5.700000 0.000000 0.700000
v 5.700000 0.000000 1.050000
v 5.700000 0.000000 1.400000
v 6.650000 0.000000 -1.400000
v 6.650000 0.000000 -1.353333
v 6.650000 0.000000 -1.306667
v 6.650000 0.000000 -1.260000
v 6.650000 0.000000 -1.213333
v 6.650000 0.000000 -1.166667
v 6.650000 0.000000 -1.140000
v 6.650000 0.000000 -1.140000
v 6.650000 0.057063 -1.101459
v 6.650000 0.057063 -1.101459
v 6.650000 -0.057063 -1.101459
v 6.650000 -0.057063 -1.101459
v 6.650000 0.000000 -1.100000
v 6.650000 0.000000 -1.100000
v 6.650000 0.000000 -1.120000
v 6.650000 0.000000 -1.050000
v 6.650000 0.000000 -0.980000
v 6.650000 0.000000 -0.930000
v 6.650000 0.000000 -0.930000
v 6.650000 0.048296 -0.897059
v 6.650000 0.048296 -0.897059
v 6.650000 -0.048296 -0.897059
v 6.650000 -0.048296 -0.897059
v 6.650000 0.000000 -0.890000
v 6.650000 0.000000 -0.910000
v 6.650000 0.000000 -0.840000
v 6.650000 0.000000 -0.770000
v 6.650000 0.000000 -0.700000
v 6.650000 0.000000 -0.350000
v 6.650000 0.000000 -0.000000
v 6.650000 0.000000 0.350000
v 6.650000 0.000000 0.700000
v 6.650000 0.000000 1.050000
v 6.650000 0.000000 1.400000
v 7.600000 0.000000 -1.400000
v 7.600000 0.000000 -1.353333
v 7.600000 0.000000 -1.306667
v 7.600000 0.000000 -1.260000
v 7.600000 0.000000 -1.213333
v 7.600000 0.000000 -1.166667
v 7.600000 0.000000 -1.140000
v 7.600000 0.000000 -1.140000
v 7.600000 0.057063 -1.101459
v 7.600000 0.057063 -1.101459
v 7.600000 -0.057063 -1.101459
v 7.600000 -0.057063 -1.101459
v 7.600000 0.000000 -1.100000
v 7.600000 0.000000 -1.100000
v 7.600000 0.000000 -1.120000
v 7.600000 0.000000 -1.050000
v 7.600000 0.000000 -0.980000
v 7.600000 0.000000 -0.930000
v 7.600000 0.000000 -0.930000
v 7.600000 0.048296 -0.897059
v 7.600000 0.048296 -0.897059
v 7.600000 -0.048296 -0.897059
v 7.600000 -0.048296 -0.897059
v 7.600000 0.000000 -0.890000
v 7.600000 0.000000 -0.910000
v 7.600000 0.000000 -0.840000
v 7.600000 0.000000 -0.770000
v 7.600000 0.000000 -0.700000
v 7.600000 0.000000 -0.350000
v 7.600000 0.000000 -0.000000
v 7.600000 0.000000 0.350000
v 7.600000 0.000000 0.700000
v 7.600000 0.000000 1.050000
v 7.600000 0.000000 1.400000
v 8.550000 0.000000 -1.400000
v 8.550000 0.000000 -1.353333
v 8.550000 0.000000 -1.306667
v 8.550000 0.000000 -1.260000
v 8.550000 0.000000 -1.213333
v 8.550000 0.000000 -1.166667
v 8.550000 0.000000 -1.140000
v 8.550000 0.000000 -1.140000
v 8.550000 0.057063 -1.101459
v 8.550000 0.057063 -1.101459
v 8.550000 -0.057063 -1.101459
v 8.550000 -0.057063 -1.101459
v 8.550000 0.000000 -1.100000
v 8.550000 0.000000 -1.100000
v 8.550000 0.000000 -1.120000
v 8.550000 0.000000 -1.050000
v 8.550000 0.000000 -0.980000
v 8.550000 0.000000 -0.930000
v 8.550000 0.000000 -0.930000
v 8.550000 0.048296 -0.897059
v 8.550000 0.048296 -0.897059
v 8.550000 -0.048296 -0.897059
v 8.550000 -0.048296 -0.897059
v 8.550000 0.000000 -0.890000
v 8.550000 0.000000 -0.910000
v 8.550000 0.000000 -0.840000
v 8.550000 0.000000 -0.770000
v 8.550000 0.000000 -0.700000
v 8.550000 0.000000 -0.350000
v 8.550000 0.000000 -0.000000
v 8.550000 0.000000 0.350000
v 8.550000 0.000000 0.700000
v 8.550000 0.000000 1.050000
v 8.550000 0.000000 1.400000
v 9.500000 0.000000 -1.400000
v 9.500000 0.000000 -1.353333
v 9.500000 0.000000 -1.306667
v 9.500000 0.000000 -1.260000
v 9.500000 0.000000 -1.213333
v 9.500000 0.000000 -1.166667
v 9.500000 0.000000 -1.140000
v 9.500000 0.000000 -1.140000
v 9.500000 0.057063 -1.101459
v 9.500000 0.057063 -1.101459
v 9.500000 -0.057063 -1.101459
v 9.500000 -0.057063 -1.101459
v 9.500000 0.000000 -1.100000
v 9.500000 0.000000 -1.100000
v 9.500000 0.000000 -1.120000
v 9.500000 0.000000 -1.050000
v 9.500000 0.000000 -0.980000
v 9.500000 0.000000 -0.930000
v 9.500000 0.000000 -0.930000
v 9.500000 0.048296 -0.897059
v 9.500000 0.048296 -0.897059
v 9.500000 -0.048296 -0.897059
v 9.500000 -0.048296 -0.897059
v 9.500000 0.000000 -0.890000
v 9.500000 0.000000 -0.910000
v 9.500000 0.000000 -0.840000
v 9.500000 0.000000 -0.770000
v 9.500000 0.000000 -0.700000
v 9.500000 0.000000 -0.350000
v 9.500000 0.000000 -0.000000
v 9.500000 0.000000 0.350000
v 9.500000 0.000000 0.700000
v 9.500000 0.000000 1.050000
v 9.500000 0.000000 1.400000
v 10.450000 0.000000 -1.400000
v 10.450000 0.000000 -1.353333
v 10.450000 0.000000 -1.306667
v 10.450000 0.000000 -1.260000
v 10.450000 0.000000 -1.213333
v 10.450000 0.000000 -1.166667
v 10.450000 0.000000 -1.140000
v 10.450000 0.000000 -1.140000
v 10.450000 0.057063 -1.101459
v 10.450000 0.057063 -1.101459
v 10.450000 -0.057063 -1.101459
v 10.450000 -0.057063 -1.101459
v 10.450000 0.000000 -1.100000
v 10.450000 0.000000 -1.100000
v 10.450000 0.000000 -1.120000
v 10.450000 0.000000 -1.050000
v 10.450000 0.000000 -0.980000
v 10.450000 0.000000 -0.930000
v 10.450000 0.000000 -0.930000
v 10.450000 0.048296 -0.897059
v 10.450000 0.048296 -0.897059
v 10.450000 -0.048296 -0.897059
v 10.450000 -0.048296 -0.897059
v 10.450000 0.000000 -0.890000
v 10.450000 0.000000 -0.910000
v 10.450000 0.000000 -0.840000
v 10.450000 0.000000 -0.770000
v 10.450000 0.000000 -0.700000
v 10.450000 0.000000 -0.350000
v 10.450000 0.000000 -0.000000
v 10.450000 0.000000 0.350000
v 10.450000 0.000000 0.700000
v 10.450000 0.000000 1.050000
v 10.450000 0.000000 1.400000
v 11.400000 0.000000 -1.400000
v 11.400000 0.000000 -1.353333
v 11.400000 0.000000 -1.306667
v 11.400000 0.000000 -1.260000
v 11.400000 0.000000 -1.213333
v 11.400000 0.000000 -1.166667
v 11.400000 0.000000 -1.140000
v 11.400000 0.000000 -1.140000
v 11.400000 0.057063 -1.101459
v 11.400000 0.057063 -1.101459
v 11.400000 -0.057063 -1.101459
v 11.400000 -0.057063 -1.101459
v 11.400000 0.000000 -1.100000
v 11.400000 0.000000 -1.100000
v 11.400000 0.000000 -1.120000
v 11.400000 0.000000 -1.050000
v 11.400000 0.000000 -0.980000
v 11.400000 0.000000 -0.930000
v 11.400000 0.000000 -0.930000
v 11.400000 0.048296 -0.897059
v 11.400000 0.048296 -0.897059
v 11.400000 -0.048296 -0.897059
v 11.400000 -0.048296 -0.897059
v 11.400000 0.000000 -0.890000
v 11.400000 0.000000 -0.910000
v 11.400000 0.000000 -0.840000
v 11.400000 0.000000 -0.770000
v 11.400000 0.000000 -0.700000
v 11.400000 0.000000 -0.350000
v 11.400000 0.000000 -0.000000
v 11.400000 0.000000 0.350000
v 11.400000 0.000000 0.700000
v 11.400000 0.000000 1.050000
v 11.400000 0.000000 1.400000
v 12.350000 0.000000 -1.400000
v 12.350000 0.000000 -1.353333
v 12.350000 0.000000 -1.306667
v 12.350000 0.000000 -1.260000
v 12.350000 0.000000 -1.213333
v 12.350000 0.000000 -1.166667
v 12.350000 0.000000 -1.140000
v 12.350000 0.000000 -1.140000
v 12.350000 0.057063 -1.101459
v 12.350000 0.057063 -1.101459
v 12.350000 -0.057063 -1.101459
v 12.350000 -0.057063 -1.101459
v 12.350000 0.000000 -1.100000
v 12.350000 0.000000 -1.100000
v 12.350000 0.000000 -1.120000
v 12.350000 0.000000 -1.050000
v 12.350000 0.000000 -0.980000
v 12.350000 0.000000 -0.930000
v 12.350000 0.000000 -0.930000
v 12.350000 0.048296 -0.897059
v 12.350000 0.048296 -0.897059
v 12.350000 -0.048296 -0.897059
v 12.350000 -0.048296 -0.897059
v 12.350000 0.000000 -0.890000
v 12.350000 0.000000 -0.910000
v 12.350000 0.000000 -0.840000
v 12.350000 0.000000 -0.770000
v 12.350000 0.000000 -0.700000
v 12.350000 0.000000 -0.350000
v 12.350000 0.000000 -0.000000
v 12.350000 0.000000 0.350000
v 12.350000 0.000000 0.700000
v 12.350000 0.000000 1.050000
v 12.350000 0.000000 1.400000
v 13.300000 0.000000 -1.400000
v 13.300000 0.000000 -1.353333
v 13.300000 0.000000 -1.306667
v 13.300000 0.000000 -1.260000
v 13.300000 0.000000 -1.213333
v 13.300000 0.000000 -1.166667
v 13.300000 0.000000 -1.140000
v 13.300000 0.000000 -1.140000
v 13.300000 0.057063 -1.101459
v 13.300000 0.057063 -1.101459
v 13.300000 -0.057063 -1.101459
v 13.300000 -0.057063 -1.101459
v 13.300000 0.000000 -1.100000
v 13.300000 0.000000 -1.100000
v 13.300000 0.000000 -1.120000
v 13.300000 0.000000 -1.050000
v 13.300000 0.000000 -0.980000
v 13.300000 0.000000 -0.930000
v 13.300000 0.000000 -0.930000
v 13.300000 0.048296 -0.897059
v 13.300000 0.048296 -0.897059
v 13.300000 -0.048296 -0.897059
v 13.300000 -0.048296 -0.897059
v 13.300000 0.000000 -0.890000
v 13.300000 0.000000 -0.910000
v 13.300000 0.000000 -0.840000
v 13.300000 0.000000 -0.770000
v 13.300000 0.000000 -0.700000
v 13.300000 0.000000 -0.350000
v 13.300000 0.000000 -0.000000
v 13.300000 0.000000 0.350000
v 13.300000 0.000000 0.700000
v 13.300000 0.000000 1.050000
v 13.300000 0.000000 1.400000
v 14.250000 0.000000 -1.400000
v 14.250000 0.000000 -1.353333
v 14.250000 0.000000 -1.306667
v 14.250000 0.000000 -1.260000
v 14.250000 0.000000 -1.213333
v 14.250000 0.000000 -1.166667
v 14.250000 0.000000 -1.140000
v 14.250000 0.057063 -1.101459
v 14.250000 -0.057063 -1.101459
v 14.250000 0.000000 -1.100000
v 14.250000 0.000000 -1.120000
v 14.250000 0.000000 -1.050000
v 14.250000 0.000000 -0.980000
v 14.250000 0.000000 -0.930000
v 14.250000 0.048296 -0.897059
v 14.250000 -0.048296 -0.897059
v 14.250000 0.000000 -0.890000
v 14.250000 0.000000 -0.910000
v 14.250000 0.000000 -0.840000
v 14.250000 0.000000 -0.770000
v 14.250000 0.000000 -0.700000
v 14.250000 0.000000 -0.350000
v 14.250000 0.000000 -0.000000
v 14.250000 0.000000 0.350000
v 14.250000 0.000000 0.700000
v 14.250000 0.000000 1.050000
v 14.250000 0.000000 1.400000
v 0.000000 0.000000 -1.400000
v 0.950000 0.000000 -1.400000
v 0.950000 0.108333 -1.073333
v 0.950000 -0.108333 -1.073333
v 0.950000 0.216667 -0.746667
v 0.950000 -0.216667 -0.746667
v 0.950000 0.325000 -0.420000
v 0.950000 -0.325000 -0.420000
v 0.950000 0.433333 0.051852
v 0.950000 -0.433333 0.051852
v 0.950000 0.541667 0.725926
v 0.950000 -0.541667 0.725926
v 0.950000 0.650000 1.400000
v 0.950000 -0.650000 1.400000
v 1.900000 0.000000 -1.400000
v 1.900000 0.216667 -1.073333
v 1.900000 -0.216667 -1.073333
v 1.900000 0.433333 -0.746667
v 1.900000 -0.433333 -0.746667
v 1.900000 0.650000 -0.420000
v 1.900000 -0.650000 -0.420000
v 1.900000 0.866667 0.051852
v 1.900000 -0.866667 0.051852
v 1.900000 1.083333 0.725926
v 1.900000 -1.083333 0.725926
v 1.900000 1.300000 1.400000
v 1.900000 -1.300000 1.400000
v 2.850000 0.000000 -1.400000
v 2.850000 0.325000 -1.073333
v 2.850000 -0.325000 -1.073333
v 2.850000 0.650000 -0.746667
v 2.850000 -0.650000 -0.746667
v 2.850000 0.975000 -0.420000
v 2.850000 -0.975000 -0.420000
v 2.850000 1.300000 0.051852
v 2.850000 -1.300000 0.051852
v 2.850000 1.625000 0.725926
v 2.850000 -1.625000 0.725926
v 2.850000 1.950000 1.400000
v 2.850000 -1.950000 1.400000
v 3.800000 0.000000 -1.400000
v 3.800000 0.433333 -1.073333
v 3.800000 -0.433333 -1.073333
v 3.800000 0.866667 -0.746667
v 3.800000 -0.866667 -0.746667
v 3.800000 1.300000 -0.420000
v 3.800000 -1.300000 -0.420000
v 3.800000 1.733333 0.051852
v 3.800000 -1.733333 0.051852
v 3.800000 2.166667 0.725926
v 3.800000 -2.166667 0.725926
v 3.800000 2.600000 1.400000
v 3.800000 -2.600000 1.400000

vn 0.000000 0.000000 1.000000
vn 0.000000 0.000000 1.000000
vn 0.000000 0.000000 1.000000
vn 0.000000 0.000000 1.000000
vn 0.000000 0.000000 1.000000
vn 0.000000 0.000000 1.000000
vn 0.000000 0.000000 1.000000
vn 0.000000 0.000000 1.000000
vn 0.000000 0.000000 1.000000
vn 0.000000 0.000000 1.000000
vn 0.000000 0.000000 1.000000
vn 0.000000 0.000000 1.000000
vn 0.000000 0.000000 1.000000
vn 0.000000 0.000000 1.000000
vn 0.000000 0.000000 1.000000
vn 0.000000 0.000000 1.000000
vn 0.000000 0.000000 1.000000
vn 0.000000 0.000000 1.000000
vn 0.000000 0.000000 1.000000
vn 0.000000 0.000000 1.000000
vn 0.000000 0.000000 1.000000
vn 0.000000 0.000000 1.000000
vn 0.000000 0.000000 1.000000
vn 0.000000 0.000000 1.000000
vn 0.000000 0.000000 1.000000
vn 0.000000 0.000000 1.000000
vn 0.000000 0.000000 1.000000
vn 0.000000 0.000000 1.000000
vn 0.000000 0.000000 1.000000
vn 0.000000 0.000000 1.000000
vn 0.000000 0.000000 1.000000
vn 0.000000 0.000000 1.000000
vn 0.000000 0.000000 1.000000
vn 0.000000 0.000000 1.000000
vn 0.000000 0.000000 1.000000
vn 0.000000 0.000000 1.000000
vn 0.000000 0.000000 1.000000
vn 0.000000 0.000000 1.000000
vn 0.000000 0.000000 1.000000
vn 0.000000 0.000000 1.000000
vn 0.000000 0.000000 1.000000
vn 0.000000 0.000000 1.000000
vn 0.000000 0.000000 1.000000
vn 0.000000 0.000000 1.000000
vn 0.000000 0.000000 1.000000
vn 0.000000 0.000000 1.000000
vn 0.000000 0.000000 1.000000
vn 0.000000 0.000000 1.000000
vn 0.000000 0.000000 1.000000
vn 0.000000 0.000000 1.000000
vn 0.000000 0.000000 1.000000
vn 0.000000 0.000000 1.000000
vn 0.000000 0.000000 1.000000
vn 0.000000 0.000000 1.000000
vn 0.000000 0.000000 1.000000
vn 0.000000 0.000000 1.000000
vn 0.000000 0.000000 1.000000
vn 0.000000 0.000000 1.000000
vn 0.000000 0.000000 1.000000
vn 0.000000 0.000000 1.000000
vn 0.000000 0.000000 1.000000
vn 0.000000 0.000000 1.000000
vn 0.000000 0.000000 1.000000
vn 0.000000 0.000000 1.000000
vn 0.000000 0.000000 1.000000
vn 0.000000 0.000000 1.000000
vn 0.070994 0.000000 0.997477
vn 0.000000 0.000000 1.000000
vn 0.038516 0.000000 -0.999258
vn 0.000000 0.000000 1.000000
vn 0.000000 0.000000 1.000000
vn 0.000000 0.000000 1.000000
vn 0.000000 0.000000 1.000000
vn 0.000000 0.000000 1.000000
vn 0.000000 0.000000 1.000000
vn 0.064305 0.000000 0.997930
vn 0.034121 0.000000 -0.999418
vn 0.000000 0.000000 1.000000
vn 0.000000 0.000000 1.000000
vn 0.000000 0.000000 1.000000
vn 0.000000 0.000000 1.000000
vn 0.000000 -1.000000 0.000000
vn 0.000000 1.000000 0.000000
vn 0.000000 0.000000 1.000000
vn 0.000000 0.000000 1.000000
vn 0.000000 0.000000 1.000000
vn 0.000000 0.000000 1.000000
vn 0.000000 0.000000 1.000000
vn 0.000000 0.000000 1.000000
vn 0.000000 0.000000 1.000000
vn 0.000000 0.000000 1.000000
vn 0.000000 0.000000 1.000000
vn 0.000000 0.000000 1.000000
vn 0.000000 0.000000 1.000000
vn 0.000000 0.000000 1.000000
vn 0.000000 0.000000 1.000000
vn 0.021048 0.000000 0.999778
vn 0.011974 -0.923251 0.384012
vn 0.027952 -0.992626 -0.117949
vn 0.027952 0.992626 -0.117949
vn 0.011974 0.923251 0.384012
vn 0.006231 0.000000 -0.999981
vn 0.000000 0.000000 -1.000000
vn 0.000000 0.000000 1.000000
vn 0.000000 0.000000 1.000000
vn 0.000000 0.000000 1.000000
vn 0.000000 0.000000 1.000000
vn 0.021048 0.000000 0.999778
vn 0.022921 -0.995087 -0.096314
vn 0.010562 -0.931701 0.363072
vn 0.010562 0.931701 0.363072
vn 0.022921 0.995087 -0.096314
vn 0.004123 0.000000 -0.999992
vn 0.000000 0.000000 1.000000
vn 0.000000 0.000000 1.000000
vn 0.000000 0.000000 1.000000
vn 0.000000 0.000000 1.000000
vn 0.000000 0.000000 1.000000
vn 0.000000 0.000000 1.000000
vn 0.000000 0.000000 1.000000
vn 0.000000 0.000000 1.000000
vn 0.000000 0.000000 1.000000
vn 0.000000 0.000000 1.000000
vn 0.000000 0.000000 1.000000
vn 0.000000 0.000000 1.000000
vn 0.000000 0.000000 1.000000
vn 0.000000 0.000000 1.000000
vn 0.000000 0.000000 1.000000
vn 0.000000 0.000000 1.000000
vn 0.000000 0.000000 1.000000
vn 0.004148 0.000000 0.999991
vn 0.013408 -0.580005 -0.814502
vn 0.000000 -0.867118 0.498104
vn 0.000000 0.867118 0.498104
vn 0.013408 0.580005 -0.814502
vn 0.000000 0.000000 -1.000000
vn 0.000000 0.000000 -1.000000
vn 0.000000 0.000000 1.000000
vn 0.000000 0.000000 1.000000
vn 0.000000 0.000000 1.000000
vn 0.000000 0.000000 1.000000
vn 0.004186 0.000000 0.999991
vn 0.000000 -0.886769 0.462212
vn 0.011914 -0.701047 -0.713016
vn 0.011914 0.701047 -0.713016
vn 0.000000 0.886769 0.462212
vn 0.000000 0.000000 -1.000000
vn 0.000000 0.000000 1.000000
vn 0.000000 0.000000 1.000000
vn 0.000000 0.000000 1.000000
vn 0.000000 0.000000 1.000000
vn 0.000000 0.000000 1.000000
vn 0.000000 0.000000 1.000000
vn 0.000000 0.000000 1.000000
vn 0.000000 0.000000 1.000000
vn 0.000000 0.000000 1.000000
vn 0.000000 0.000000 1.000000
vn 0.000000 0.000000 1.000000
vn 0.000000 0.000000 1.000000
vn 0.000000 0.000000 1.000000
vn 0.000000 0.000000 1.000000
vn 0.000000 0.000000 1.000000
vn 0.000000 0.000000 1.000000
vn 0.000000 0.000000 1.000000
vn 0.000000 0.000000 1.000000
vn 0.000000 -0.867118 0.498104
vn 0.000000 -0.462594 -0.886570
vn 0.000000 0.462594 -0.886570
vn 0.000000 0.867118 0.498104
vn 0.000000 0.000000 -1.000000
vn 0.000000 0.000000 -1.000000
vn 0.000000 0.000000 1.000000
vn 0.000000 0.000000 1.000000
vn 0.000000 0.000000 1.000000
vn 0.000000 0.000000 1.000000
vn 0.000000 0.000000 1.000000
vn 0.000000 -0.594672 -0.803968
vn 0.000000 -0.886769 0.462212
vn 0.000000 0.886769 0.462212
vn 0.000000 0.594672 -0.803968
vn 0.000000 0.000000 -1.000000
vn 0.000000 0.000000 1.000000
vn 0.000000 0.000000 1.000000
vn 0.000000 0.000000 1.000000
vn 0.000000 0.000000 1.000000
vn 0.000000 0.000000 1.000000
vn 0.000000 0.000000 1.000000
vn 0.000000 0.000000 1.000000
vn 0.000000 0.000000 1.000000
vn 0.000000 0.000000 1.000000
vn 0.000000 0.000000 1.000000
vn 0.000000 0.000000 1.000000
vn 0.000000 0.000000 1.000000
vn 0.000000 0.000000 1.000000
vn 0.000000 0.000000 1.000000
vn 0.000000 0.000000 1.000000
vn 0.000000 0.000000 1.000000
vn 0.000000 0.000000 1.000000
vn 0.000000 0.000000 1.000000
vn 0.000000 -0.462594 -0.886570
vn 0.000000 -0.867118 0.498104
vn 0.000000 0.867118 0.498104
vn 0.000000 0.462594 -0.886570
vn 0.000000 0.000000 -1.000000
vn 0.000000 0.000000 -1.000000
vn 0.000000 0.000000 1.000000
vn 0.000000 0.000000 1.000000
vn 0.000000 0.000000 1.000000
vn 0.000000 0.000000 1.000000
vn 0.000000 0.000000 1.000000
vn 0.000000 -0.886769 0.462212
vn 0.000000 -0.594672 -0.803968
vn 0.000000 0.594672 -0.803968
vn 0.000000 0.886769 0.462212
vn 0.000000 0.000000 -1.000000
vn 0.000000 0.000000 1.000000
vn 0.000000 0.000000 1.000000
vn 0.000000 0.000000 1.000000
vn 0.000000 0.000000 1.000000
vn 0.000000 0.000000 1.000000
vn 0.000000 0.000000 1.000000
vn 0.000000 0.000000 1.000000
vn 0.000000 0.000000 1.000000
vn 0.000000 0.000000 1.000000
vn 0.000000 0.000000 1.000000
vn 0.000000 0.000000 1.000000
vn 0.000000 0.000000 1.000000
vn 0.000000 0.000000 1.000000
vn 0.000000 0.000000 1.000000
vn 0.000000 0.000000 1.000000
vn 0.000000 0.000000 1.000000
vn 0.000000 0.000000 1.000000
vn 0.000000 0.000000 1.000000
vn 0.000000 -0.867118 0.498104
vn 0.000000 -0.462594 -0.886570
vn 0.000000 0.462594 -0.886570
vn 0.000000 0.867118 0.498104
vn 0.000000 0.000000 -1.000000
vn 0.000000 0.000000 -1.000000
vn 0.000000 0.000000 1.000000
vn 0.000000 0.000000 1.000000
vn 0.000000 0.000000 1.000000
vn 0.000000 0.000000 1.000000
vn 0.000000 0.000000 1.000000
vn 0.000000 -0.594672 -0.803968
vn 0.000000 -0.886769 0.462212
vn 0.000000 0.886769 0.462212
vn 0.000000 0.594672 -0.803968
vn 0.000000 0.000000 -1.000000
vn 0.000000 0.000000 1.000000
vn 0.000000 0.000000 1.000000
vn 0.000000 0.000000 1.000000
vn 0.000000 0.000000 1.000000
vn 0.000000 0.000000 1.000000
vn 0.000000 0.000000 1.000000
vn 0.000000 0.000000 1.000000
vn 0.000000 0.000000 1.000000
vn 0.000000 0.000000 1.000000
vn 0.000000 0.000000 1.000000
vn 0.000000 0.000000 1.000000
vn 0.000000 0.000000 1.000000
vn 0.000000 0.000000 1.000000
vn 0.000000 0.000000 1.000000
vn 0.000000 0.000000 1.000000
vn 0.000000 0.000000 1.000000
vn 0.000000 0.000000 1.000000
vn 0.000000 0.000000 1.000000
vn 0.000000 -0.462594 -0.886570
vn 0.000000 -0.867118 0.498104
vn 0.000000 0.867118 0.498104
vn 0.000000 0.462594 -0.886570
vn 0.000000 0.000000 -1.000000
vn 0.000000 0.000000 -1.000000
vn 0.000000 0.000000 1.000000
vn 0.000000 0.000000 1.000000
vn 0.000000 0.000000 1.000000
vn 0.000000 0.000000 1.000000
vn 0.000000 0.000000 1.000000
vn 0.000000 -0.886769 0.462212
vn 0.000000 -0.594672 -0.803968
vn 0.000000 0.594672 -0.803968
vn 0.000000 0.886769 0.462212
vn 0.000000 0.000000 -1.000000
vn 0.000000 0.000000 1.000000
vn 0.000000 0.000000 1.000000
vn 0.000000 0.000000 1.000000
vn 0.000000 0.000000 1.000000
vn 0.000000 0.000000 1.000000
vn 0.000000 0.000000 1.000000
vn 0.000000 0.000000 1.000000
vn 0.000000 0.000000 1.000000
vn 0.000000 0.000000 1.000000
vn 0.000000 0.000000 1.000000
vn 0.000000 0.000000 1.000000
vn 0.000000 0.000000 1.000000
vn 0.000000 0.000000 1.000000
vn 0.000000 0.000000 1.000000
vn 0.000000 0.000000 1.000000
vn 0.000000 0.000000 1.000000
vn 0.000000 0.000000 1.000000
vn 0.000000 0.000000 1.000000
vn 0.000000 -0.867118 0.498104
vn 0.000000 -0.462594 -0.886570
vn 0.000000 0.462594 -0.886570
vn 0.000000 0.867118 0.498104
vn 0.000000 0.000000 -1.000000
vn 0.000000 0.000000 -1.000000
vn 0.000000 0.000000 1.000000
vn 0.000000 0.000000 1.000000
vn 0.000000 0.000000 1.000000
vn 0.000000 0.000000 1.000000
vn 0.000000 0.000000 1.000000
vn 0.000000 -0.594672 -0.803968
vn 0.000000 -0.886769 0.462212
vn 0.000000 0.886769 0.462212
vn 0.000000 0.594672 -0.803968
vn 0.000000 0.000000 -1.000000
vn 0.000000 0.000000 1.000000
vn 0.000000 0.000000 1.000000
vn 0.000000 0.000000 1.000000
vn 0.000000 0.000000 1.000000
vn 0.000000 0.000000 1.000000
vn 0.000000 0.000000 1.000000
vn 0.000000 0.000000 1.000000
vn 0.000000 0.000000 1.000000
vn 0.000000 0.000000 1.000000
vn 0.000000 0.000000 1.000000
vn 0.000000 0.000000 1.000000
vn 0.000000 0.000000 1.000000
vn 0.000000 0.000000 1.000000
vn 0.000000 0.000000 1.000000
vn 0.000000 0.000000 1.000000
vn 0.000000 0.000000 1.000000
vn 0.000000 0.000000 1.000000
vn 0.000000 0.000000 1.000000
vn 0.000000 -0.462594 -0.886570
vn 0.000000 -0.867118 0.498104
vn 0.000000 0.867118 0.498104
vn 0.000000 0.462594 -0.886570
vn 0.000000 0.000000 -1.000000
vn 0.000000 0.000000 -1.000000
vn 0.000000 0.000000 1.000000
vn 0.000000 0.000000 1.000000
vn 0.000000 0.000000 1.000000
vn 0.000000 0.000000 1.000000
vn 0.000000 0.000000 1.000000
vn 0.000000 -0.886769 0.462212
vn 0.000000 -0.594672 -0.803968
vn 0.000000 0.594672 -0.803968
vn 0.000000 0.886769 0.462212
vn 0.000000 0.000000 -1.000000
vn 0.000000 0.000000 1.000000
vn 0.000000 0.000000 1.000000
vn 0.000000 0.000000 1.000000
vn 0.000000 0.000000 1.000000
vn 0.000000 0.000000 1.000000
vn 0.000000 0.000000 1.000000
vn 0.000000 0.000000 1.000000
vn 0.000000 0.000000 1.000000
vn 0.000000 0.000000 1.000000
vn 0.000000 0.000000 1.000000
vn 0.000000 0.000000 1.000000
vn 0.000000 0.000000 1.000000
vn 0.000000 0.000000 1.000000
vn 0.000000 0.000000 1.000000
vn 0.000000 0.000000 1.000000
vn 0.000000 0.000000 1.000000
vn 0.000000 0.000000 1.000000
vn 0.000000 0.000000 1.000000
vn 0.000000 -0.867118 0.498104
vn 0.000000 -0.462594 -0.886570
vn 0.000000 0.462594 -0.886570
vn 0.000000 0.867118 0.498104
vn 0.000000 0.000000 -1.000000
vn 0.000000 0.000000 -1.000000
vn 0.000000 0.000000 1.000000
vn 0.000000 0.000000 1.000000
vn 0.000000 0.000000 1.000000
vn 0.000000 0.000000 1.000000
vn 0.000000 0.000000 1.000000
vn 0.000000 -0.594672 -0.803968
vn 0.000000 -0.886769 0.462212
vn 0.000000 0.886769 0.462212
vn 0.000000 0.594672 -0.803968
vn 0.000000 0.000000 -1.000000
vn 0.000000 0.000000 1.000000
vn 0.000000 0.000000 1.000000
vn 0.000000 0.000000 1.000000
vn 0.000000 0.000000 1.000000
vn 0.000000 0.000000 1.000000
vn 0.000000 0.000000 1.000000
vn 0.000000 0.000000 1.000000
vn 0.000000 0.000000 1.000000
vn 0.000000 0.000000 1.000000
vn 0.000000 0.000000 1.000000
vn 0.000000 0.000000 1.000000
vn 0.000000 0.000000 1.000000
vn 0.000000 0.000000 1.000000
vn 0.000000 0.000000 1.000000
vn 0.000000 0.000000 1.000000
vn 0.000000 0.000000 1.000000
vn 0.000000 0.000000 1.000000
vn 0.000000 0.000000 1.000000
vn 0.000000 -0.462594 -0.886570
vn 0.000000 -0.867118 0.498104
vn 0.000000 0.867118 0.498104
vn 0.000000 0.462594 -0.886570
vn 0.000000 0.000000 -1.000000
vn 0.000000 0.000000 -1.000000
vn 0.000000 0.000000 1.000000
vn 0.000000 0.000000 1.000000
vn 0.000000 0.000000 1.000000
vn 0.000000 0.000000 1.000000
vn 0.000000 0.000000 1.000000
vn 0.000000 -0.886769 0.462212
vn 0.000000 -0.594672 -0.803968
vn 0.000000 0.594672 -0.803968
vn 0.000000 0.886769 0.462212
vn 0.000000 0.000000 -1.000000
vn 0.000000 0.000000 1.000000
vn 0.000000 0.000000 1.000000
vn 0.000000 0.000000 1.000000
vn 0.000000 0.000000 1.000000
vn 0.000000 0.000000 1.000000
vn 0.000000 0.000000 1.000000
vn 0.000000 0.000000 1.000000
vn 0.000000 0.000000 1.000000
vn 0.000000 0.000000 1.000000
vn 0.000000 0.000000 1.000000
vn 0.000000 0.000000 1.000000
vn 0.000000 0.000000 1.000000
vn 0.000000 0.000000 1.000000
vn 0.000000 0.000000 1.000000
vn 0.000000 0.000000 1.000000
vn 0.000000 0.000000 1.000000
vn 0.000000 0.000000 1.000000
vn 0.000000 0.000000 1.000000
vn 0.000000 -0.867118 0.498104
vn 0.000000 -0.462594 -0.886570
vn 0.000000 0.462594 -0.886570
vn 0.000000 0.867118 0.498104
vn 0.000000 0.000000 -1.000000
vn 0.000000 0.000000 -1.000000
vn 0.000000 0.000000 1.000000
vn 0.000000 0.000000 1.000000
vn 0.000000 0.000000 1.000000
vn 0.000000 0.000000 1.000000
vn 0.000000 0.000000 1.000000
vn 0.000000 -0.594672 -0.803968
vn 0.000000 -0.886769 0.462212
vn 0.000000 0.886769 0.462212
vn 0.000000 0.594672 -0.803968
vn 0.000000 0.000000 -1.000000
vn 0.000000 0.000000 1.000000
vn 0.000000 0.000000 1.000000
vn 0.000000 0.000000 1.000000
vn 0.000000 0.000000 1.000000
vn 0.000000 0.000000 1.000000
vn 0.000000 0.000000 1.000000
vn 0.000000 0.000000 1.000000
vn 0.000000 0.000000 1.000000
vn 0.000000 0.000000 1.000000
vn 0.000000 0.000000 1.000000
vn 0.000000 0.000000 1.000000
vn 0.000000 0.000000 1.000000
vn 0.000000 0.000000 1.000000
vn 0.000000 0.000000 1.000000
vn 0.000000 0.000000 1.000000
vn 0.000000 0.000000 1.000000
vn 0.000000 0.000000 1.000000
vn 0.000000 -0.462594 -0.886570
vn 0.000000 0.462594 -0.886570
vn 0.000000 0.000000 -1.000000
vn 0.000000 0.000000 1.000000
vn 0.000000 0.000000 1.000000
vn 0.000000 0.000000 1.000000
vn 0.000000 0.000000 1.000000
vn 0.000000 -0.594672 -0.803968
vn 0.000000 0.594672 -0.803968
vn 0.000000 0.000000 -1.000000
vn 0.000000 0.000000 1.000000
vn 0.000000 0.000000 1.000000
vn 0.000000 0.000000 1.000000
vn 0.000000 0.000000 1.000000
vn 0.000000 0.000000 1.000000
vn 0.000000 0.000000 1.000000
vn 0.000000 0.000000 1.000000
vn 0.000000 0.000000 1.000000
vn 0.000000 0.000000 1.000000
vn 0.000000 0.000000 1.000000
vn 0.000000 0.000000 1.000000
vn 0.000000 0.000000 1.000000
vn 0.068012 -0.915645 0.396193
vn 0.068012 0.915645 0.396193
vn 0.170095 -0.904438 0.391227
vn 0.170095 0.904438 0.391227
vn 0.270511 -0.895018 0.354636
vn 0.270511 0.895018 0.354636
vn 0.372413 -0.894005 0.249124
vn 0.372413 0.894005 0.249124
vn 0.460697 -0.868174 0.184476
vn 0.460697 0.868174 0.184476
vn 0.519544 -0.831219 0.197859
vn 0.519544 0.831219 0.197859
vn 0.066580 0.000000 0.997781
vn 0.095010 -0.835634 0.541007
vn 0.095010 0.835634 0.541007
vn 0.187478 -0.824393 0.534068
vn 0.187478 0.824393 0.534068
vn 0.286630 -0.836668 0.466723
vn 0.286630 0.836668 0.466723
vn 0.390059 -0.856438 0.338183
vn 0.390059 0.856438 0.338183
vn 0.476159 -0.837637 0.267651
vn 0.476159 0.837637 0.267651
vn 0.516940 -0.802109 0.298988
vn 0.516940 0.802109 0.298988
vn 0.041055 0.000000 0.999157
vn 0.081124 -0.712916 0.696542
vn 0.081124 0.712916 0.696542
vn 0.160648 -0.705858 0.689896
vn 0.160648 0.705858 0.689896
vn 0.256406 -0.745487 0.615227
vn 0.256406 0.745487 0.615227
vn 0.366584 -0.803303 0.469383
vn 0.366584 0.803303 0.469383
vn 0.456232 -0.802380 0.384758
vn 0.456232 0.802380 0.384758
vn 0.494325 -0.767068 0.408962
vn 0.494325 0.767068 0.408962
vn -0.276134 0.000000 0.961119
vn -0.673660 -0.472327 0.568410
vn -0.498981 0.553858 0.666527
vn -0.646834 -0.487395 0.586560
vn -0.646834 0.487395 0.586560
vn -0.610586 -0.575150 0.544414
vn -0.610586 0.575150 0.544414
vn -0.561524 -0.687943 0.459810
vn -0.561524 0.687943 0.459810
vn -0.519170 -0.737199 0.432436
vn -0.519170 0.737199 0.432436
vn -0.500587 -0.728197 0.468126
vn -0.866026 0.420589 0.270379

f 1//1 20//20 2//2
f 2//2 20//20 21//21
f 2//2 21//21 3//3
f 3//3 21//21 22//22
f 3//3 22//22 4//4
f 4//4 22//22 23//23
f 4//4 23//23 5//5
f 5//5 23//23 24//24
f 5//5 24//24 6//6
f 6//6 24//24 25//25
f 6//6 25//25 7//7
f 7//7 25//25 26//26
f 7//7 26//26 8//8
f 8//8 26//26 27//27
f 8//8 27//27 9//9
f 9//9 27//27 28//28
f 9//9 28//28 10//10
f 10//10 28//28 29//29
f 10//10 29//29 11//11
f 11//11 29//29 30//30
f 11//11 30//30 12//12
f 12//12 30//30 31//31
f 12//12 31//31 13//13
f 13//13 31//31 32//32
f 13//13 32//32 14//14
f 14//14 32//32 33//33
f 14//14 33//33 15//15
f 15//15 33//33 34//34
f 15//15 34//34 16//16
f 16//16 34//34 35//35
f 16//16 35//35 17//17
f 17//17 35//35 36//36
f 17//17 36//36 18//18
f 18//18 36//36 37//37
f 18//18 37//37 19//19
f 19//19 37//37 38//38
f 20//20 39//39 21//21
f 21//21 39//39 40//40
f 21//21 40//40 22//22
f 22//22 40//40 41//41
f 22//22 41//41 23//23
f 23//23 41//41 42//42
f 23//23 42//42 24//24
f 24//24 42//42 43//43
f 24//24 43//43 25//25
f 25//25 43//43 44//44
f 25//25 44//44 26//26
f 26//26 44//44 45//45
f 26//26 45//45 27//27
f 27//27 45//45 46//46
f 27//27 46//46 28//28
f 28//28 46//46 47//47
f 28//28 47//47 29//29
f 29//29 47//47 48//48
f 29//29 48//48 30//30
f 30//30 48//48 49//49
f 30//30 49//49 31//31
f 31//31 49//49 50//50
f 31//31 50//50 32//32
f 32//32 50//50 51//51
f 32//32 51//51 33//33
f 33//33 51//51 52//52
f 33//33 52//52 34//34
f 34//34 52//52 53//53
f 34//34 53//53 35//35
f 35//35 53//53 54//54
f 35//35 54//54 36//36
f 36//36 54//54 55//55
f 36//36 55//55 37//37
f 37//37 55//55 56//56
f 37//37 56//56 38//38
f 38//38 56//56 57//57
f 39//39 58//58 40//40
f 40//40 58//58 59//59
f 40//40 59//59 41//41
f 41//41 59//59 60//60
f 41//41 60//60 42//42
f 42//42 60//60 61//61
f 42//42 61//61 43//43
f 43//43 61//61 62//62
f 43//43 62//62 44//44
f 44//44 62//62 63//63
f 44//44 63//63 45//45
f 45//45 63//63 64//64
f 45//45 64//64 46//46
f 46//46 64//64 66//66
f 46//46 66//66 47//47
f 47//47 66//66 68//68
f 47//47 68//68 48//48
f 48//48 68//68 70//70
f 48//48 70//70 49//49
f 49//49 70//70 71//71
f 49//49 71//71 50//50
f 50//50 71//71 72//72
f 50//50 72//72 51//51
f 51//51 72//72 73//73
f 51//51 73//73 52//52
f 52//52 73//73 75//75
f 52//52 75//75 53//53
f 53//53 75//75 77//77
f 53//53 77//77 54//54
f 54//54 77//77 78//78
f 54//54 78//78 55//55
f 55//55 78//78 79//79
f 55//55 79//79 56//56
f 56//56 79//79 80//80
f 56//56 80//80 57//57
f 57//57 80//80 82//82
f 58//58 90//90 59//59
f 59//59 90//90 91//91
f 59//59 91//91 60//60
f 60//60 91//91 92//92
f 60//60 92//92 61//61
f 61//61 92//92 93//93
f 61//61 93//93 62//62
f 62//62 93//93 94//94
f 62//62 94//94 63//63
f 63//63 94//94 95//95
f 63//63 95//95 65//65
f 65//65 95//95 97//97
f 65//65 97//97 67//67
f 67//67 97//97 99//99
f 67//67 99//99 69//69
f 69//69 99//99 103//103
f 69//69 103//103 70//70
f 70//70 103//103 104//104
f 70//70 104//104 71//71
f 71//71 104//104 105//105
f 71//71 105//105 72//72
f 72//72 105//105 106//106
f 72//72 106//106 74//74
f 74//74 106//106 108//108
f 74//74 108//108 76//76
f 76//76 108//108 109//109
f 76//76 109//109 77//77
f 77//77 109//109 113//113
f 77//77 113//113 78//78
f 78//78 113//113 114//114
f 78//78 114//114 79//79
f 79//79 114//114 115//115
f 79//79 115//115 80//80
f 80//80 115//115 116//116
f 80//80 116//116 81//81
f 81//81 116//116 117//117
f 81//81 117//117 84//84
f 84//84 117//117 118//118
f 84//84 118//118 85//85
f 85//85 118//118 119//119
f 85//85 119//119 86//86
f 86//86 119//119 120//120
f 86//86 120//120 87//87
f 87//87 120//120 121//121
f 87//87 121//121 88//88
f 88//88 121//121 122//122
f 88//88 122//122 89//89
f 89//89 122//122 123//123
f 90//90 124//124 91//91
f 91//91 124//124 125//125
f 91//91 125//125 92//92
f 92//92 125//125 126//126
f 92//92 126//126 93//93
f 93//93 126//126 127//127
f 93//93 127//127 94//94
f 94//94 127//127 128//128
f 94//94 128//128 95//95
f 95//95 128//128 129//129
f 95//95 129//129 96//96
f 96//96 129//129 131//131
f 96//96 131//131 98//98
f 98//98 131//131 132//132
f 98//98 132//132 102//102
f 102//102 132//132 136//136
f 102//102 136//136 104//104
f 104//104 136//136 138//138
f 104//104 138//138 105//105
f 105//105 138//138 139//139
f 105//105 139//139 106//106
f 106//106 139//139 140//140
f 106//106 140//140 107//107
f 107//107 140//140 142//142
f 107//107 142//142 110//110
f 110//110 142//142 144//144
f 110//110 144//144 113//113
f 113//113 144//144 147//147
f 113//113 147//147 114//114
f 114//114 147//147 148//148
f 114//114 148//148 115//115
f 115//115 148//148 149//149
f 115//115 149//149 116//116
f 116//116 149//149 150//150
f 116//116 150//150 117//117
f 117//117 150//150 151//151
f 117//117 151//151 118//118
f 118//118 151//151 152//152
f 118//118 152//152 119//119
f 119//119 152//152 153//153
f 119//119 153//153 120//120
f 120//120 153//153 154//154
f 120//120 154//154 121//121
f 121//121 154//154 155//155
f 121//121 155//155 122//122
f 122//122 155//155 156//156
f 122//122 156//156 123//123
f 123//123 156//156 157//157
f 124//124 158//158 125//125
f 125//125 158//158 159//159
f 125//125 159//159 126//126
f 126//126 159//159 160//160
f 126//126 160//160 127//127
f 127//127 160//160 161//161
f 127//127 161//161 128//128
f 128//128 161//161 162//162
f 128//128 162//162 129//129
f 129//129 162//162 163//163
f 129//129 163//163 130//130
f 130//130 163//163 165//165
f 130//130 165//165 133//133
f 133//133 165//165 167//167
f 133//133 167//167 137//137
f 137//137 167//167 171//171
f 137//137 171//171 138//138
f 138//138 171//171 172//172
f 138//138 172//172 139//139
f 139//139 172//172 173//173
f 139//139 173//173 140//140
f 140//140 173//173 174//174
f 140//140 174//174 141//141
f 141//141 174//174 176//176
f 141//141 176//176 143//143
f 143//143 176//176 177//177
f 143//143 177//177 147//147
f 147//147 177//177 181//181
f 147//147 181//181 148//148
f 148//148 181//181 182//182
f 148//148 182//182 149//149
f 149//149 182//182 183//183
f 149//149 183//183 150//150
f 150//150 183//183 184//184
f 150//150 184//184 151//151
f 151//151 184//184 185//185
f 151//151 185//185 152//152
f 152//152 185//185 186//186
f 152//152 186//186 153//153
f 153//153 186//186 187//187
f 153//153 187//187 154//154
f 154//154 187//187 188//188
f 154//154 188//188 155//155
f 155//155 188//188 189//189
f 155//155 189//189 156//156
f 156//156 189//189 190//190
f 156//156 190//190 157//157
f 157//157 190//190 191//191
f 158//158 192//192 159//159
f 159//159 192//192 193//193
f 159//159 193//193 160//160
f 160//160 193//193 194//194
f 160//160 194//194 161//161
f 161//161 194//194 195//195
f 161//161 195//195 162//162
f 162//162 195//195 196//196
f 162//162 196//196 163//163
f 163//163 196//196 197//197
f 163//163 197//197 164//164
f 164//164 197//197 199//199
f 164//164 199//199 166//166
f 166//166 199//199 200//200
f 166//166 200//200 170//170
f 170//170 200//200 204//204
f 170//170 204//204 172//172
f 172//172 204//204 206//206
f 172//172 206//206 173//173
f 173//173 206//206 207//207
f 173//173 207//207 174//174
f 174//174 207//207 208//208
f 174//174 208//208 175//175
f 175//175 208//208 210//210
f 175//175 210//210 178//178
f 178//178 210//210 212//212
f 178//178 212//212 181//181
f 181//181 212//212 215//215
f 181//181 215//215 182//182
f 182//182 215//215 216//216
f 182//182 216//216 183//183
f 183//183 216//216 217//217
f 183//183 217//217 184//184
f 184//184 217//217 218//218
f 184//184 218//218 185//185
f 185//185 218//218 219//219
f 185//185 219//219 186//186
f 186//186 219//219 220//220
f 186//186 220//220 187//187
f 187//187 220//220 221//221
f 187//187 221//221 188//188
f 188//188 221//221 222//222
f 188//188 222//222 189//189
f 189//189 222//222 223//223
f 189//189 223//223 190//190
f 190//190 223//223 224//224
f 190//190 224//224 191//191
f 191//191 224//224 225//225
f 192//192 226//226 193//193
f 193//193 226//226 227//227
f 193//193 227//227 194//194
f 194//194 227//227 228//228
f 194//194 228//228 195//195
f 195//195 228//228 229//229
f 195//195 229//229 196//196
f 196//196 229//229 230//230
f 196//196 230//230 197//197
f 197//197 230//230 231//231
f 197//197 231//231 198//198
f 198//198 231//231 233//233
f 198//198 233//233 201//201
f 201//201 233//233 235//235
f 201//201 235//235 205//205
f 205//205 235//235 239//239
f 205//205 239//239 206//206
f 206//206 239//239 240//240
f 206//206 240//240 207//207
f 207//207 240//240 241//241
f 207//207 241//241 208//208
f 208//208 241//241 242//242
f 208//208 242//242 209//209
f 209//209 242//242 244//244
f 209//209 244//244 211//211
f 211//211 244//244 245//245
f 211//211 245//245 215//215
f 215//215 245//245 249//249
f 215//215 249//249 216//216
f 216//216 249//249 250//250
f 216//216 250//250 217//217
f 217//217 250//250 251//251
f 217//217 251//251 218//218
f 218//218 251//251 252//252
f 218//218 252//252 219//219
f 219//219 252//252 253//253
f 219//219 253//253 220//220
f 220//220 253//253 254//254
f 220//220 254//254 221//221
f 221//221 254//254 255//255
f 221//221 255//255 222//222
f 222//222 255//255 256//256
f 222//222 256//256 223//223
f 223//223 256//256 257//257
f 223//223 257//257 224//224
f 224//224 257//257 258//258
f 224//224 258//258 225//225
f 225//225 258//258 259//259
f 226//226 260//260 227//227
f 227//227 260//260 261//261
f 227//227 261//261 228//228
f 228//228 261//261 262//262
f 228//228 262//262 229//229
f 229//229 262//262 263//263
f 229//229 263//263 230//230
f 230//230 263//263 264//264
f 230//230 264//264 231//231
f 231//231 264//264 265//265
f 231//231 265//265 232//232
f 232//232 265//265 267//267
f 232//232 267//267 234//234
f 234//234 267//267 268//268
f 234//234 268//268 238//238
f 238//238 268//268 272//272
f 238//238 272//272 240//240
f 240//240 272//272 274//274
f 240//240 274//274 241//241
f 241//241 274//274 275//275
f 241//241 275//275 242//242
f 242//242 275//275 276//276
f 242//242 276//276 243//243
f 243//243 276//276 278//278
f 243//243 278//278 246//246
f 246//246 278//278 280//280
f 246//246 280//280 249//249
f 249//249 280//280 283//283
f 249//249 283//283 250//250
f 250//250 283//283 284//284
f 250//250 284//284 251//251
f 251//251 284//284 285//285
f 251//251 285//285 252//252
f 252//252 285//285 286//286
f 252//252 286//286 253//253
f 253//253 286//286 287//287
f 253//253 287//287 254//254
f 254//254 287//287 288//288
f 254//254 288//288 255//255
f 255//255 288//288 289//289
f 255//255 289//289 256//256
f 256//256 289//289 290//290
f 256//256 290//290 257//257
f 257//257 290//290 291//291
f 257//257 291//291 258//258
f 258//258 291//291 292//292
f 258//258 292//292 259//259
f 259//259 292//292 293//293
f 260//260 294//294 261//261
f 261//261 294//294 295//295
f 261//261 295//295 262//262
f 262//262 295//295 296//296
f 262//262 296//296 263//263
f 263//263 296//296 297//297
f 263//263 297//297 264//264
f 264//264 297//297 298//298
f 264//264 298//298 265//265
f 265//265 298//298 299//299
f 265//265 299//299 266//266
f 266//266 299//299 301//301
f 266//266 301//301 269//269
f 269//269 301//301 303//303
f 269//269 303//303 273//273
f 273//273 303//303 307//307
f 273//273 307//307 274//274
f 274//274 307//307 308//308
f 274//274 308//308 275//275
f 275//275 308//308 309//309
f 275//275 309//309 276//276
f 276//276 309//309 310//310
f 276//276 310//310 277//277
f 277//277 310//310 312//312
f 277//277 312//312 279//279
f 279//279 312//312 313//313
f 279//279 313//313 283//283
f 283//283 313//313 317//317
f 283//283 317//317 284//284
f 284//284 317//317 318//318
f 284//284 318//318 285//285
f 285//285 318//318 319//319
f 285//285 319//319 286//286
f 286//286 319//319 320//320
f 286//286 320//320 287//287
f 287//287 320//320 321//321
f 287//287 321//321 288//288
f 288//288 321//321 322//322
f 288//288 322//322 289//289
f 289//289 322//322 323//323
f 289//289 323//323 290//290
f 290//290 323//323 324//324
f 290//290 324//324 291//291
f 291//291 324//324 325//325
f 291//291 325//325 292//292
f 292//292 325//325 326//326
f 292//292 326//326 293//293
f 293//293 326//326 327//327
f 294//294 328//328 295//295
f 295//295 328//328 329//329
f 295//295 329//329 296//296
f 296//296 329//329 330//330
f 296//296 330//330 297//297
f 297//297 330//330 331//331
f 297//297 331//331 298//298
f 298//298 331//331 332//332
f 298//298 332//332 299//299
f 299//299 332//332 333//333
f 299//299 333//333 300//300
f 300//300 333//333 335//335
f 300//300 335//335 302//302
f 302//302 335//335 336//336
f 302//302 336//336 306//306
f 306//306 336//336 341//341
f 306//306 341//341 308//308
f 308//308 341//341 342//342
f 308//308 342//342 309//309
f 309//309 342//342 343//343
f 309//309 343//343 310//310
f 310//310 343//343 344//344
f 310//310 344//344 311//311
f 311//311 344//344 346//346
f 311//311 346//346 314//314
f 314//314 346//346 348//348
f 314//314 348//348 317//317
f 317//317 348//348 351//351
f 317//317 351//351 318//318
f 318//318 351//351 352//352
f 318//318 352//352 319//319
f 319//319 352//352 353//353
f 319//319 353//353 320//320
f 320//320 353//353 354//354
f 320//320 354//354 321//321
f 321//321 354//354 355//355
f 321//321 355//355 322//322
f 322//322 355//355 356//356
f 322//322 356//356 323//323
f 323//323 356//356 357//357
f 323//323 357//357 324//324
f 324//324 357//357 358//358
f 324//324 358//358 325//325
f 325//325 358//358 359//359
f 325//325 359//359 326//326
f 326//326 359//359 360//360
f 326//326 360//360 327//327
f 327//327 360//360 361//361
f 328//328 362//362 329//329
f 329//329 362//362 363//363
f 329//329 363//363 330//330
f 330//330 363//363 364//364
f 330//330 364//364 331//331
f 331//331 364//364 365//365
f 331//331 365//365 332//332
f 332//332 365//365 366//366
f 332//332 366//366 333//333
f 333//333 366//366 367//367
f 333//333 367//367 334//334
f 334//334 367//367 369//369
f 334//334 369//369 337//337
f 337//337 369//369 371//371
f 337//337 371//371 340//340
f 340//340 371//371 375//375
f 340//340 375//375 342//342
f 342//342 375//375 376//376
f 342//342 376//376 343//343
f 343//343 376//376 377//377
f 343//343 377//377 344//344
f 344//344 377//377 378//378
f 344//344 378//378 345//345
f 345//345 378//378 380//380
f 345//345 380//380 347//347
f 347//347 380//380 381//381
f 347//347 381//381 351//351
f 351//351 381//381 385//385
f 351//351 385//385 352//352
f 352//352 385//385 386//386
f 352//352 386//386 353//353
f 353//353 386//386 387//387
f 353//353 387//387 354//354
f 354//354 387//387 388//388
f 354//354 388//388 355//355
f 355//355 388//388 389//389
f 355//355 389//389 356//356
f 356//356 389//389 390//390
f 356//356 390//390 357//357
f 357//357 390//390 391//391
f 357//357 391//391 358//358
f 358//358 391//391 392//392
f 358//358 392//392 359//359
f 359//359 392//392 393//393
f 359//359 393//393 360//360
f 360//360 393//393 394//394
f 360//360 394//394 361//361
f 361//361 394//394 395//395
f 362//362 396//396 363//363
f 363//363 396//396 397//397
f 363//363 397//397 364//364
f 364//364 397//397 398//398
f 364//364 398//398 365//365
f 365//365 398//398 399//399
f 365//365 399//399 366//366
f 366//366 399//399 400//400
f 366//366 400//400 367//367
f 367//367 400//400 401//401
f 367//367 401//401 368//368
f 368//368 401//401 402//402
f 368//368 402//402 370//370
f 370//370 402//402 404//404
f 370//370 404//404 374//374
f 374//374 404//404 409//409
f 374//374 409//409 376//376
f 376//376 409//409 410//410
f 376//376 410//410 377//377
f 377//377 410//410 411//411
f 377//377 411//411 378//378
f 378//378 411//411 412//412
f 378//378 412//412 379//379
f 379//379 412//412 414//414
f 379//379 414//414 382//382
f 382//382 414//414 416//416
f 382//382 416//416 385//385
f 385//385 416//416 419//419
f 385//385 419//419 386//386
f 386//386 419//419 420//420
f 386//386 420//420 387//387
f 387//387 420//420 421//421
f 387//387 421//421 388//388
f 388//388 421//421 422//422
f 388//388 422//422 389//389
f 389//389 422//422 423//423
f 389//389 423//423 390//390
f 390//390 423//423 424//424
f 390//390 424//424 391//391
f 391//391 424//424 425//425
f 391//391 425//425 392//392
f 392//392 425//425 426//426
f 392//392 426//426 393//393
f 393//393 426//426 427//427
f 393//393 427//427 394//394
f 394//394 427//427 428//428
f 394//394 428//428 395//395
f 395//395 428//428 429//429
f 396//396 430//430 397//397
f 397//397 430//430 431//431
f 397//397 431//431 398//398
f 398//398 431//431 432//432
f 398//398 432//432 399//399
f 399//399 432//432 433//433
f 399//399 433//433 400//400
f 400//400 433//433 434//434
f 400//400 434//434 401//401
f 401//401 434//434 435//435
f 401//401 435//435 403//403
f 403//403 435//435 437//437
f 403//403 437//437 405//405
f 405//405 437//437 439//439
f 405//405 439//439 408//408
f 408//408 439//439 443//443
f 408//408 443//443 410//410
f 410//410 443//443 444//444
f 410//410 444//444 411//411
f 411//411 444//444 445//445
f 411//411 445//445 412//412
f 412//412 445//445 446//446
f 412//412 446//446 413//413
f 413//413 446//446 448//448
f 413//413 448//448 415//415
f 415//415 448//448 449//449
f 415//415 449//449 419//419
f 419//419 449//449 453//453
f 419//419 453//453 420//420
f 420//420 453//453 454//454
f 420//420 454//454 421//421
f 421//421 454//454 455//455
f 421//421 455//455 422//422
f 422//422 455//455 456//456
f 422//422 456//456 423//423
f 423//423 456//456 457//457
f 423//423 457//457 424//424
f 424//424 457//457 458//458
f 424//424 458//458 425//425
f 425//425 458//458 459//459
f 425//425 459//459 426//426
f 426//426 459//459 460//460
f 426//426 460//460 427//427
f 427//427 460//460 461//461
f 427//427 461//461 428//428
f 428//428 461//461 462//462
f 428//428 462//462 429//429
f 429//429 462//462 463//463
f 430//430 464//464 431//431
f 431//431 464//464 465//465
f 431//431 465//465 432//432
f 432//432 465//465 466//466
f 432//432 466//466 433//433
f 433//433 466//466 467//467
f 433//433 467//467 434//434
f 434//434 467//467 468//468
f 434//434 468//468 435//435
f 435//435 468//468 469//469
f 435//435 469//469 436//436
f 436//436 469//469 470//470
f 436//436 470//470 438//438
f 438//438 470//470 471//471
f 438//438 471//471 442//442
f 442//442 471//471 473//473
f 442//442 473//473 444//444
f 444//444 473//473 474//474
f 444//444 474//474 445//445
f 445//445 474//474 475//475
f 445//445 475//475 446//446
f 446//446 475//475 476//476
f 446//446 476//476 447//447
f 447//447 476//476 477//477
f 447//447 477//477 450//450
f 450//450 477//477 478//478
f 450//450 478//478 453//453
f 453//453 478//478 480//480
f 453//453 480//480 454//454
f 454//454 480//480 481//481
f 454//454 481//481 455//455
f 455//455 481//481 482//482
f 455//455 482//482 456//456
f 456//456 482//482 483//483
f 456//456 483//483 457//457
f 457//457 483//483 484//484
f 457//457 484//484 458//458
f 458//458 484//484 485//485
f 458//458 485//485 459//459
f 459//459 485//485 486//486
f 459//459 486//486 460//460
f 460//460 486//486 487//487
f 460//460 487//487 461//461
f 461//461 487//487 488//488
f 461//461 488//488 462//462
f 462//462 488//488 489//489
f 462//462 489//489 463//463
f 463//463 489//489 490//490
f 492//492 505//505 493//493
f 493//493 505//505 506//506
f 493//493 506//506 495//495
f 495//495 506//506 508//508
f 495//495 508//508 497//497
f 497//497 508//508 510//510
f 497//497 510//510 499//499
f 499//499 510//510 512//512
f 499//499 512//512 501//501
f 501//501 512//512 514//514
f 501//501 514//514 503//503
f 503//503 514//514 516//516
f 505//505 518//518 506//506
f 506//506 518//518 519//519
f 506//506 519//519 508//508
f 508//508 519//519 521//521
f 508//508 521//521 510//510
f 510//510 521//521 523//523
f 510//510 523//523 512//512
f 512//512 523//523 525//525
f 512//512 525//525 514//514
f 514//514 525//525 527//527
f 514//514 527//527 516//516
f 516//516 527//527 529//529
f 518//518 531//531 519//519
f 519//519 531//531 532//532
f 519//519 532//532 521//521
f 521//521 532//532 534//534
f 521//521 534//534 523//523
f 523//523 534//534 536//536
f 523//523 536//536 525//525
f 525//525 536//536 538//538
f 525//525 538//538 527//527
f 527//527 538//538 540//540
f 527//527 540//540 529//529
f 529//529 540//540 542//542
f 1//1 2//2 20//20
f 2//2 21//21 20//20
f 2//2 3//3 21//21
f 3//3 22//22 21//21
f 3//3 4//4 22//22
f 4//4 23//23 22//22
f 4//4 5//5 23//23
f 5//5 24//24 23//23
f 5//5 6//6 24//24
f 6//6 25//25 24//24
f 6//6 7//7 25//25
f 7//7 26//26 25//25
f 7//7 8//8 26//26
f 8//8 27//27 26//26
f 8//8 9//9 27//27
f 9//9 28//28 27//27
f 9//9 10//10 28//28
f 10//10 29//29 28//28
f 10//10 11//11 29//29
f 11//11 30//30 29//29
f 11//11 12//12 30//30
f 12//12 31//31 30//30
f 12//12 13//13 31//31
f 13//13 32//32 31//31
f 13//13 14//14 32//32
f 14//14 33//33 32//32
f 14//14 15//15 33//33
f 15//15 34//34 33//33
f 15//15 16//16 34//34
f 16//16 35//35 34//34
f 16//16 17//17 35//35
f 17//17 36//36 35//35
f 17//17 18//18 36//36
f 18//18 37//37 36//36
f 18//18 19//19 37//37
f 19//19 38//38 37//37
f 20//20 21//21 39//39
f 21//21 40//40 39//39
f 21//21 22//22 40//40
f 22//22 41//41 40//40
f 22//22 23//23 41//41
f 23//23 42//42 41//41
f 23//23 24//24 42//42
f 24//24 43//43 42//42
f 24//24 25//25 43//43
f 25//25 44//44 43//43
f 25//25 26//26 44//44
f 26//26 45//45 44//44
f 26//26 27//27 45//45
f 27//27 46//46 45//45
f 27//27 28//28 46//46
f 28//28 47//47 46//46
f 28//28 29//29 47//47
f 29//29 48//48 47//47
f 29//29 30//30 48//48
f 30//30 49//49 48//48
f 30//30 31//31 49//49
f 31//31 50//50 49//49
f 31//31 32//32 50//50
f 32//32 51//51 50//50
f 32//32 33//33 51//51
f 33//33 52//52 51//51
f 33//33 34//34 52//52
f 34//34 53//53 52//52
f 34//34 35//35 53//53
f 35//35 54//54 53//53
f 35//35 36//36 54//54
f 36//36 55//55 54//54
f 36//36 37//37 55//55
f 37//37 56//56 55//55
f 37//37 38//38 56//56
f 38//38 57//57 56//56
f 39//39 40//40 58//58
f 40//40 59//59 58//58
f 40//40 41//41 59//59
f 41//41 60//60 59//59
f 41//41 42//42 60//60
f 42//42 61//61 60//60
f 42//42 43//43 61//61
f 43//43 62//62 61//61
f 43//43 44//44 62//62
f 44//44 63//63 62//62
f 44//44 45//45 63//63
f 45//45 64//64 63//63
f 45//45 46//46 64//64
f 46//46 66//66 64//64
f 46//46 47//47 66//66
f 47//47 68//68 66//66
f 47//47 48//48 68//68
f 48//48 70//70 68//68
f 48//48 49//49 70//70
f 49//49 71//71 70//70
f 49//49 50//50 71//71
f 50//50 72//72 71//71
f 50//50 51//51 72//72
f 51//51 73//73 72//72
f 51//51 52//52 73//73
f 52//52 75//75 73//73
f 52//52 53//53 75//75
f 53//53 77//77 75//75
f 53//53 54//54 77//77
f 54//54 78//78 77//77
f 54//54 55//55 78//78
f 55//55 79//79 78//78
f 55//55 56//56 79//79
f 56//56 80//80 79//79
f 56//56 57//57 80//80
f 57//57 83//83 80//80
f 58//58 59//59 90//90
f 59//59 91//91 90//90
f 59//59 60//60 91//91
f 60//60 92//92 91//91
f 60//60 61//61 92//92
f 61//61 93//93 92//92
f 61//61 62//62 93//93
f 62//62 94//94 93//93
f 62//62 63//63 94//94
f 63//63 95//95 94//94
f 63//63 65//65 95//95
f 65//65 97//97 95//95
f 65//65 67//67 97//97
f 67//67 100//100 97//97
f 67//67 69//69 100//100
f 69//69 103//103 100//100
f 69//69 70//70 103//103
f 70//70 104//104 103//103
f 70//70 71//71 104//104
f 71//71 105//105 104//104
f 71//71 72//72 105//105
f 72//72 106//106 105//105
f 72//72 74//74 106//106
f 74//74 108//108 106//106
f 74//74 76//76 108//108
f 76//76 112//112 108//108
f 76//76 77//77 112//112
f 77//77 113//113 112//112
f 77//77 78//78 113//113
f 78//78 114//114 113//113
f 78//78 79//79 114//114
f 79//79 115//115 114//114
f 79//79 80//80 115//115
f 80//80 116//116 115//115
f 80//80 81//81 116//116
f 81//81 117//117 116//116
f 81//81 84//84 117//117
f 84//84 118//118 117//117
f 84//84 85//85 118//118
f 85//85 119//119 118//118
f 85//85 86//86 119//119
f 86//86 120//120 119//119
f 86//86 87//87 120//120
f 87//87 121//121 120//120
f 87//87 88//88 121//121
f 88//88 122//122 121//121
f 88//88 89//89 122//122
f 89//89 123//123 122//122
f 90//90 91//91 124//124
f 91//91 125//125 124//124
f 91//91 92//92 125//125
f 92//92 126//126 125//125
f 92//92 93//93 126//126
f 93//93 127//127 126//126
f 93//93 94//94 127//127
f 94//94 128//128 127//127
f 94//94 95//95 128//128
f 95//95 129//129 128//128
f 95//95 96//96 129//129
f 96//96 131//131 129//129
f 96//96 101//101 131//131
f 101//101 135//135 131//131
f 101//101 102//102 135//135
f 102//102 136//136 135//135
f 102//102 104//104 136//136
f 104//104 138//138 136//136
f 104//104 105//105 138//138
f 105//105 139//139 138//138
f 105//105 106//106 139//139
f 106//106 140//140 139//139
f 106//106 107//107 140//140
f 107//107 142//142 140//140
f 107//107 111//111 142//142
f 111//111 145//145 142//142
f 111//111 113//113 145//145
f 113//113 147//147 145//145
f 113//113 114//114 147//147
f 114//114 148//148 147//147
f 114//114 115//115 148//148
f 115//115 149//149 148//148
f 115//115 116//116 149//149
f 116//116 150//150 149//149
f 116//116 117//117 150//150
f 117//117 151//151 150//150
f 117//117 118//118 151//151
f 118//118 152//152 151//151
f 118//118 119//119 152//152
f 119//119 153//153 152//152
f 119//119 120//120 153//153
f 120//120 154//154 153//153
f 120//120 121//121 154//154
f 121//121 155//155 154//154
f 121//121 122//122 155//155
f 122//122 156//156 155//155
f 122//122 123//123 156//156
f 123//123 157//157 156//156
f 124//124 125//125 158//158
f 125//125 159//159 158//158
f 125//125 126//126 159//159
f 126//126 160//160 159//159
f 126//126 127//127 160//160
f 127//127 161//161 160//160
f 127//127 128//128 161//161
f 128//128 162//162 161//161
f 128//128 129//129 162//162
f 129//129 163//163 162//162
f 129//129 130//130 163//163
f 130//130 165//165 163//163
f 130//130 134//134 165//165
f 134//134 168//168 165//165
f 134//134 137//137 168//168
f 137//137 171//171 168//168
f 137//137 138//138 171//171
f 138//138 172//172 171//171
f 138//138 139//139 172//172
f 139//139 173//173 172//172
f 139//139 140//140 173//173
f 140//140 174//174 173//173
f 140//140 141//141 174//174
f 141//141 176//176 174//174
f 141//141 146//146 176//176
f 146//146 180//180 176//176
f 146//146 147//147 180//180
f 147//147 181//181 180//180
f 147//147 148//148 181//181
f 148//148 182//182 181//181
f 148//148 149//149 182//182
f 149//149 183//183 182//182
f 149//149 150//150 183//183
f 150//150 184//184 183//183
f 150//150 151//151 184//184
f 151//151 185//185 184//184
f 151//151 152//152 185//185
f 152//152 186//186 185//185
f 152//152 153//153 186//186
f 153//153 187//187 186//186
f 153//153 154//154 187//187
f 154//154 188//188 187//187
f 154//154 155//155 188//188
f 155//155 189//189 188//188
f 155//155 156//156 189//189
f 156//156 190//190 189//189
f 156//156 157//157 190//190
f 157//157 191//191 190//190
f 158//158 159//159 192//192
f 159//159 193//193 192//192
f 159//159 160//160 193//193
f 160//160 194//194 193//193
f 160//160 161//161 194//194
f 161//161 195//195 194//194
f 161//161 162//162 195//195
f 162//162 196//196 195//195
f 162//162 163//163 196//196
f 163//163 197//197 196//196
f 163//163 164//164 197//197
f 164//164 199//199 197//197
f 164//164 169//169 199//199
f 169//169 203//203 199//199
f 169//169 170//170 203//203
f 170//170 204//204 203//203
f 170//170 172//172 204//204
f 172//172 206//206 204//204
f 172//172 173//173 206//206
f 173//173 207//207 206//206
f 173//173 174//174 207//207
f 174//174 208//208 207//207
f 174//174 175//175 208//208
f 175//175 210//210 208//208
f 175//175 179//179 210//210
f 179//179 213//213 210//210
f 179//179 181//181 213//213
f 181//181 215//215 213//213
f 181//181 182//182 215//215
f 182//182 216//216 215//215
f 182//182 183//183 216//216
f 183//183 217//217 216//216
f 183//183 184//184 217//217
f 184//184 218//218 217//217
f 184//184 185//185 218//218
f 185//185 219//219 218//218
f 185//185 186//186 219//219
f 186//186 220//220 219//219
f 186//186 187//187 220//220
f 187//187 221//221 220//220
f 187//187 188//188 221//221
f 188//188 222//222 221//221
f 188//188 189//189 222//222
f 189//189 223//223 222//222
f 189//189 190//190 223//223
f 190//190 224//224 223//223
f 190//190 191//191 224//224
f 191//191 225//225 224//224
f 192//192 193//193 226//226
f 193//193 227//227 226//226
f 193//193 194//194 227//227
f 194//194 228//228 227//227
f 194//194 195//195 228//228
f 195//195 229//229 228//228
f 195//195 196//196 229//229
f 196//196 230//230 229//229
f 196//196 197//197 230//230
f 197//197 231//231 230//230
f 197//197 198//198 231//231
f 198//198 233//233 231//231
f 198//198 202//202 233//233
f 202//202 236//236 233//233
f 202//202 205//205 236//236
f 205//205 239//239 236//236
f 205//205 206//206 239//239
f 206//206 240//240 239//239
f 206//206 207//207 240//240
f 207//207 241//241 240//240
f 207//207 208//208 241//241
f 208//208 242//242 241//241
f 208//208 209//209 242//242
f 209//209 244//244 242//242
f 209//209 214//214 244//244
f 214//214 248//248 244//244
f 214//214 215//215 248//248
f 215//215 249//249 248//248
f 215//215 216//216 249//249
f 216//216 250//250 249//249
f 216//216 217//217 250//250
f 217//217 251//251 250//250
f 217//217 218//218 251//251
f 218//218 252//252 251//251
f 218//218 219//219 252//252
f 219//219 253//253 252//252
f 219//219 220//220 253//253
f 220//220 254//254 253//253
f 220//220 221//221 254//254
f 221//221 255//255 254//254
f 221//221 222//222 255//255
f 222//222 256//256 255//255
f 222//222 223//223 256//256
f 223//223 257//257 256//256
f 223//223 224//224 257//257
f 224//224 258//258 257//257
f 224//224 225//225 258//258
f 225//225 259//259 258//258
f 226//226 227//227 260//260
f 227//227 261//261 260//260
f 227//227 228//228 261//261
f 228//228 262//262 261//261
f 228//228 229//229 262//262
f 229//229 263//263 262//262
f 229//229 230//230 263//263
f 230//230 264//264 263//263
f 230//230 231//231 264//264
f 231//231 265//265 264//264
f 231//231 232//232 265//265
f 232//232 267//267 265//265
f 232//232 237//237 267//267
f 237//237 271//271 267//267
f 237//237 238//238 271//271
f 238//238 272//272 271//271
f 238//238 240//240 272//272
f 240//240 274//274 272//272
f 240//240 241//241 274//274
f 241//241 275//275 274//274
f 241//241 242//242 275//275
f 242//242 276//276 275//275
f 242//242 243//243 276//276
f 243//243 278//278 276//276
f 243//243 247//247 278//278
f 247//247 281//281 278//278
f 247//247 249//249 281//281
f 249//249 283//283 281//281
f 249//249 250//250 283//283
f 250//250 284//284 283//283
f 250//250 251//251 284//284
f 251//251 285//285 284//284
f 251//251 252//252 285//285
f 252//252 286//286 285//285
f 252//252 253//253 286//286
f 253//253 287//287 286//286
f 253//253 254//254 287//287
f 254//254 288//288 287//287
f 254//254 255//255 288//288
f 255//255 289//289 288//288
f 255//255 256//256 289//289
f 256//256 290//290 289//289
f 256//256 257//257 290//290
f 257//257 291//291 290//290
f 257//257 258//258 291//291
f 258//258 292//292 291//291
f 258//258 259//259 292//292
f 259//259 293//293 292//292
f 260//260 261//261 294//294
f 261//261 295//295 294//294
f 261//261 262//262 295//295
f 262//262 296//296 295//295
f 262//262 263//263 296//296
f 263//263 297//297 296//296
f 263//263 264//264 297//297
f 264//264 298//298 297//297
f 264//264 265//265 298//298
f 265//265 299//299 298//298
f 265//265 266//266 299//299
f 266//266 301//301 299//299
f 266//266 270//270 301//301
f 270//270 304//304 301//301
f 270//270 273//273 304//304
f 273//273 307//307 304//304
f 273//273 274//274 307//307
f 274//274 308//308 307//307
f 274//274 275//275 308//308
f 275//275 309//309 308//308
f 275//275 276//276 309//309
f 276//276 310//310 309//309
f 276//276 277//277 310//310
f 277//277 312//312 310//310
f 277//277 282//282 312//312
f 282//282 316//316 312//312
f 282//282 283//283 316//316
f 283//283 317//317 316//316
f 283//283 284//284 317//317
f 284//284 318//318 317//317
f 284//284 285//285 318//318
f 285//285 319//319 318//318
f 285//285 286//286 319//319
f 286//286 320//320 319//319
f 286//286 287//287 320//320
f 287//287 321//321 320//320
f 287//287 288//288 321//321
f 288//288 322//322 321//321
f 288//288 289//289 322//322
f 289//289 323//323 322//322
f 289//289 290//290 323//323
f 290//290 324//324 323//323
f 290//290 291//291 324//324
f 291//291 325//325 324//324
f 291//291 292//292 325//325
f 292//292 326//326 325//325
f 292//292 293//293 326//326
f 293//293 327//327 326//326
f 294//294 295//295 328//328
f 295//295 329//329 328//328
f 295//295 296//296 329//329
f 296//296 330//330 329//329
f 296//296 297//297 330//330
f 297//297 331//331 330//330
f 297//297 298//298 331//331
f 298//298 332//332 331//331
f 298//298 299//299 332//332
f 299//299 333//333 332//332
f 299//299 300//300 333//333
f 300//300 335//335 333//333
f 300//300 305//305 335//335
f 305//305 339//339 335//335
f 305//305 306//306 339//339
f 306//306 341//341 339//339
f 306//306 308//308 341//341
f 308//308 342//342 341//341
f 308//308 309//309 342//342
f 309//309 343//343 342//342
f 309//309 310//310 343//343
f 310//310 344//344 343//343
f 310//310 311//311 344//344
f 311//311 346//346 344//344
f 311//311 315//315 346//346
f 315//315 349//349 346//346
f 315//315 317//317 349//349
f 317//317 351//351 349//349
f 317//317 318//318 351//351
f 318//318 352//352 351//351
f 318//318 319//319 352//352
f 319//319 353//353 352//352
f 319//319 320//320 353//353
f 320//320 354//354 353//353
f 320//320 321//321 354//354
f 321//321 355//355 354//354
f 321//321 322//322 355//355
f 322//322 356//356 355//355
f 322//322 323//323 356//356
f 323//323 357//357 356//356
f 323//323 324//324 357//357
f 324//324 358//358 357//357
f 324//324 325//325 358//358
f 325//325 359//359 358//358
f 325//325 326//326 359//359
f 326//326 360//360 359//359
f 326//326 327//327 360//360
f 327//327 361//361 360//360
f 328//328 329//329 362//362
f 329//329 363//363 362//362
f 329//329 330//330 363//363
f 330//330 364//364 363//363
f 330//330 331//331 364//364
f 331//331 365//365 364//364
f 331//331 332//332 365//365
f 332//332 366//366 365//365
f 332//332 333//333 366//366
f 333//333 367//367 366//366
f 333//333 334//334 367//367
f 334//334 369//369 367//367
f 334//334 338//338 369//369
f 338//338 372//372 369//369
f 338//338 340//340 372//372
f 340//340 375//375 372//372
f 340//340 342//342 375//375
f 342//342 376//376 375//375
f 342//342 343//343 376//376
f 343//343 377//377 376//376
f 343//343 344//344 377//377
f 344//344 378//378 377//377
f 344//344 345//345 378//378
f 345//345 380//380 378//378
f 345//345 350//350 380//380
f 350//350 384//384 380//380
f 350//350 351//351 384//384
f 351//351 385//385 384//384
f 351//351 352//352 385//385
f 352//352 386//386 385//385
f 352//352 353//353 386//386
f 353//353 387//387 386//386
f 353//353 354//354 387//387
f 354//354 388//388 387//387
f 354//354 355//355 388//388
f 355//355 389//389 388//388
f 355//355 356//356 389//389
f 356//356 390//390 389//389
f 356//356 357//357 390//390
f 357//357 391//391 390//390
f 357//357 358//358 391//391
f 358//358 392//392 391//391
f 358//358 359//359 392//392
f 359//359 393//393 392//392
f 359//359 360//360 393//393
f 360//360 394//394 393//393
f 360//360 361//361 394//394
f 361//361 395//395 394//394
f 362//362 363//363 396//396
f 363//363 397//397 396//396
f 363//363 364//364 397//397
f 364//364 398//398 397//397
f 364//364 365//365 398//398
f 365//365 399//399 398//398
f 365//365 366//366 399//399
f 366//366 400//400 399//399
f 366//366 367//367 400//400
f 367//367 401//401 400//400
f 367//367 368//368 401//401
f 368//368 402//402 401//401
f 368//368 373//373 402//402
f 373//373 407//407 402//402
f 373//373 374//374 407//407
f 374//374 409//409 407//407
f 374//374 376//376 409//409
f 376//376 410//410 409//409
f 376//376 377//377 410//410
f 377//377 411//411 410//410
f 377//377 378//378 411//411
f 378//378 412//412 411//411
f 378//378 379//379 412//412
f 379//379 414//414 412//412
f 379//379 383//383 414//414
f 383//383 417//417 414//414
f 383//383 385//385 417//417
f 385//385 419//419 417//417
f 385//385 386//386 419//419
f 386//386 420//420 419//419
f 386//386 387//387 420//420
f 387//387 421//421 420//420
f 387//387 388//388 421//421
f 388//388 422//422 421//421
f 388//388 389//389 422//422
f 389//389 423//423 422//422
f 389//389 390//390 423//423
f 390//390 424//424 423//423
f 390//390 391//391 424//424
f 391//391 425//425 424//424
f 391//391 392//392 425//425
f 392//392 426//426 425//425
f 392//392 393//393 426//426
f 393//393 427//427 426//426
f 393//393 394//394 427//427
f 394//394 428//428 427//427
f 394//394 395//395 428//428
f 395//395 429//429 428//428
f 396//396 397//397 430//430
f 397//397 431//431 430//430
f 397//397 398//398 431//431
f 398//398 432//432 431//431
f 398//398 399//399 432//432
f 399//399 433//433 432//432
f 399//399 400//400 433//433
f 400//400 434//434 433//433
f 400//400 401//401 434//434
f 401//401 435//435 434//434
f 401//401 403//403 435//435
f 403//403 437//437 435//435
f 403//403 406//406 437//437
f 406//406 440//440 437//437
f 406//406 408//408 440//440
f 408//408 443//443 440//440
f 408//408 410//410 443//443
f 410//410 444//444 443//443
f 410//410 411//411 444//444
f 411//411 445//445 444//444
f 411//411 412//412 445//445
f 412//412 446//446 445//445
f 412//412 413//413 446//446
f 413//413 448//448 446//446
f 413//413 418//418 448//448
f 418//418 452//452 448//448
f 418//418 419//419 452//452
f 419//419 453//453 452//452
f 419//419 420//420 453//453
f 420//420 454//454 453//453
f 420//420 421//421 454//454
f 421//421 455//455 454//454
f 421//421 422//422 455//455
f 422//422 456//456 455//455
f 422//422 423//423 456//456
f 423//423 457//457 456//456
f 423//423 424//424 457//457
f 424//424 458//458 457//457
f 424//424 425//425 458//458
f 425//425 459//459 458//458
f 425//425 426//426 459//459
f 426//426 460//460 459//459
f 426//426 427//427 460//460
f 427//427 461//461 460//460
f 427//427 428//428 461//461
f 428//428 462//462 461//461
f 428//428 429//429 462//462
f 429//429 463//463 462//462
f 430//430 431//431 464//464
f 431//431 465//465 464//464
f 431//431 432//432 465//465
f 432//432 466//466 465//465
f 432//432 433//433 466//466
f 433//433 467//467 466//466
f 433//433 434//434 467//467
f 434//434 468//468 467//467
f 434//434 435//435 468//468
f 435//435 469//469 468//468
f 435//435 436//436 469//469
f 436//436 470//470 469//469
f 436//436 441//441 470//470
f 441//441 472//472 470//470
f 441//441 442//442 472//472
f 442//442 473//473 472//472
f 442//442 444//444 473//473
f 444//444 474//474 473//473
f 444//444 445//445 474//474
f 445//445 475//475 474//474
f 445//445 446//446 475//475
f 446//446 476//476 475//475
f 446//446 447//447 476//476
f 447//447 477//477 476//476
f 447//447 451//451 477//477
f 451//451 479//479 477//477
f 451//451 453//453 479//479
f 453//453 480//480 479//479
f 453//453 454//454 480//480
f 454//454 481//481 480//480
f 454//454 455//455 481//481
f 455//455 482//482 481//481
f 455//455 456//456 482//482
f 456//456 483//483 482//482
f 456//456 457//457 483//483
f 457//457 484//484 483//483
f 457//457 458//458 484//484
f 458//458 485//485 484//484
f 458//458 459//459 485//485
f 459//459 486//486 485//485
f 459//459 460//460 486//486
f 460//460 487//487 486//486
f 460//460 461//461 487//487
f 461//461 488//488 487//487
f 461//461 462//462 488//488
f 462//462 489//489 488//488
f 462//462 463//463 489//489
f 463//463 490//490 489//489
f 492//492 494//494 505//505
f 494//494 507//507 505//505
f 494//494 496//496 507//507
f 496//496 509//509 507//507
f 496//496 498//498 509//509
f 498//498 511//511 509//509
f 498//498 500//500 511//511
f 500//500 513//513 511//511
f 500//500 502//502 513//513
f 502//502 515//515 513//513
f 502//502 504//504 515//515
f 504//504 517//517 515//515
f 505//505 507//507 518//518
f 507//507 520//520 518//518
f 507//507 509//509 520//520
f 509//509 522//522 520//520
f 509//509 511//511 522//522
f 511//511 524//524 522//522
f 511//511 513//513 524//524
f 513//513 526//526 524//524
f 513//513 515//515 526//526
f 515//515 528//528 526//526
f 515//515 517//517 528//528
f 517//517 530//530 528//528
f 518//518 520//520 531//531
f 520//520 533//533 531//531
f 520//520 522//522 533//533
f 522//522 535//535 533//533
f 522//522 524//524 535//535
f 524//524 537//537 535//535
f 524//524 526//526 537//537
f 526//526 539//539 537//537
f 526//526 528//528 539//539
f 528//528 541//541 539//539
f 528//528 530//530 541//541
f 530//530 543//543 541//541
f 531//531 533//533 532//532
f 532//532 535//535 534//534
f 532//532 533//533 535//535
f 534//534 537//537 536//536
f 534//534 535//535 537//537
f 536//536 539//539 538//538
f 536//536 537//537 539//539
f 538//538 541//541 540//540
f 538//538 539//539 541//541
f 540//540 543//543 542//542
f 540//540 541//541 543//543